<svg xmlns="http://www.w3.org/2000/svg" version="1.1" xmlns:xlink="http://www.w3.org/1999/xlink" width="512" height="512" x="0" y="0" viewBox="0 0 24 24" style="enable-background:new 0 0 512 512" xml:space="preserve" fill-rule="evenodd" class=""><g><path d="M16.75 10.25H20c.257 0 .508.026.75.075V3A1.75 1.75 0 0 0 19 1.25h-8A1.75 1.75 0 0 0 9.25 3v.25h4.25a3.247 3.247 0 0 1 3.25 3.25z" fill="#ffffff" opacity="1" data-original="#000000" class=""></path><path d="M3.25 6.825c.242-.049.493-.075.75-.075h6.471a3.75 3.75 0 0 1 3.051 1.57l1.304 1.825a.25.25 0 0 0 .203.105h.721V6.5a2.25 2.25 0 0 0-2.25-2.25H5A1.75 1.75 0 0 0 3.25 6z" fill="#ffffff" opacity="1" data-original="#000000" class=""></path><path d="M20 22.75A2.751 2.751 0 0 0 22.75 20v-6A2.751 2.751 0 0 0 20 11.25h-4.971c-.403 0-.782-.195-1.017-.523l-1.303-1.825a2.751 2.751 0 0 0-2.238-1.152H4a2.751 2.751 0 0 0-2.75 2.75V20A2.751 2.751 0 0 0 4 22.75zm-14-4h3a.75.75 0 0 0 0-1.5H6a.75.75 0 0 0 0 1.5zm0-2.5h3a.75.75 0 0 0 0-1.5H6a.75.75 0 0 0 0 1.5z" fill="#ffffff" opacity="1" data-original="#000000" class=""></path></g></svg>